<svg xmlns="http://www.w3.org/2000/svg" viewBox="0 0 750 471" width="150" height="94">
  <rect width="750" height="471" rx="40" fill="#1a1f71"/>
  <path d="M278.2 334.2h-60.9l38.1-235.4h60.9zM524.8 104.4c-12-4.6-31.1-9.6-54.7-9.6-60.3 0-102.8 32-103.1 77.7-.4 33.8 30.3 52.7 53.3 64 23.7 11.5 31.6 18.9 31.5 29.2-.2 15.8-18.9 23-36.3 23-24.3 0-37.2-3.5-57.1-12.3l-7.8-3.7-8.5 52.4c14.2 6.5 40.4 12.2 67.6 12.5 64.1 0 105.7-31.6 106.2-80.2.3-26.7-16-47.1-51-63.9-21.2-10.9-34.2-18.1-34.1-29.1 0-9.8 11-20.2 34.7-20.2 19.8-.3 34.2 4.2 45.4 8.9l5.4 2.7 8.4-51.4zM661.6 98.8h-47.2c-14.6 0-25.5 4.2-31.9 19.6l-90.6 216h64.1s10.5-29.1 12.8-35.4h78.3c1.8 8.3 7.4 35.4 7.4 35.4h56.6l-49.5-235.6zm-75.3 152c5.1-13.6 24.3-66 24.3-66-.4.6 5-13.7 8.1-22.6l4.1 20.4s11.7 56.2 14.1 68.2h-50.6zM232.8 98.8l-59.8 160.6-6.4-32.6c-11.1-37.6-45.7-78.4-84.4-98.8l54.6 206.1h64.5l95.9-235.3h-64.4z" fill="#fff"/>
  <path d="M131.9 98.8H33.5l-.8 4.8C110 120.8 166.1 166 189.4 226.8L165.5 119c-4.1-15.1-14.4-19.6-28.2-20.2" fill="#f9a533"/>
</svg>
